<?xml version="1.0" encoding="UTF-8" standalone="no"?>
<!-- Created with Inkscape (http://www.inkscape.org/) -->

<svg
   xmlns:osb="http://www.openswatchbook.org/uri/2009/osb"
   xmlns:dc="http://purl.org/dc/elements/1.1/"
   xmlns:cc="http://creativecommons.org/ns#"
   xmlns:rdf="http://www.w3.org/1999/02/22-rdf-syntax-ns#"
   xmlns:svg="http://www.w3.org/2000/svg"
   xmlns="http://www.w3.org/2000/svg"
   xmlns:sodipodi="http://sodipodi.sourceforge.net/DTD/sodipodi-0.dtd"
   xmlns:inkscape="http://www.inkscape.org/namespaces/inkscape"
   version="1.1"
   id="svg2"
   width="307"
   height="149"
   viewBox="0 0 307 149"
   sodipodi:docname="SmartRMS.svg"
   inkscape:version="0.92.5 (2060ec1f9f, 2020-04-08)">
  <metadata
     id="metadata8">
    <rdf:RDF>
      <cc:Work
         rdf:about="">
        <dc:format>image/svg+xml</dc:format>
        <dc:type
           rdf:resource="http://purl.org/dc/dcmitype/StillImage" />
        <dc:title />
      </cc:Work>
    </rdf:RDF>
  </metadata>
  <defs
     id="defs6">
    <inkscape:path-effect
       effect="spiro"
       id="path-effect952"
       is_visible="true" />
    <inkscape:path-effect
       effect="spiro"
       id="path-effect948"
       is_visible="true" />
    <inkscape:path-effect
       effect="spiro"
       id="path-effect944"
       is_visible="true" />
    <inkscape:perspective
       sodipodi:type="inkscape:persp3d"
       inkscape:vp_x="12.689279 : -63.004333 : 1"
       inkscape:vp_y="-517.57928 : -33.36562 : 0"
       inkscape:vp_z="-71.910076 : 93.192067 : 1"
       inkscape:persp3d-origin="-16.757179 : 15.922434 : 1"
       id="perspective864" />
    <linearGradient
       id="linearGradient4694"
       osb:paint="solid">
      <stop
         style="stop-color:#000000;stop-opacity:1;"
         offset="0"
         id="stop4692" />
    </linearGradient>
    <inkscape:path-effect
       effect="spiro"
       id="path-effect4601"
       is_visible="true" />
  </defs>
  <sodipodi:namedview
     pagecolor="#ffffff"
     bordercolor="#666666"
     borderopacity="1"
     objecttolerance="10"
     gridtolerance="10"
     guidetolerance="10"
     inkscape:pageopacity="0"
     inkscape:pageshadow="2"
     inkscape:window-width="1920"
     inkscape:window-height="1016"
     id="namedview4"
     showgrid="false"
     inkscape:zoom="2.009003"
     inkscape:cx="-22.030802"
     inkscape:cy="-36.324663"
     inkscape:window-x="0"
     inkscape:window-y="27"
     inkscape:window-maximized="1"
     inkscape:current-layer="svg2"
     showguides="true"
     inkscape:guide-bbox="true">
    <sodipodi:guide
       position="-37.578195,-88.44491"
       orientation="0,1"
       id="guide957"
       inkscape:locked="false" />
  </sodipodi:namedview>
  <rect
     style="opacity:1;fill:#ffffff;fill-opacity:1;stroke:#000000;stroke-width:0.39792094;stroke-linecap:round;stroke-linejoin:miter;stroke-miterlimit:4;stroke-dasharray:none;stroke-opacity:1"
     id="rect4645-3"
     width="307.14423"
     height="141.07785"
     x="0.40201774"
     y="3.4893782"
     inkscape:export-xdpi="300"
     inkscape:export-ydpi="300" />
  <path
     style="opacity:1;fill:none;fill-opacity:1;stroke:#000000;stroke-width:3.59715223;stroke-linecap:round;stroke-linejoin:miter;stroke-miterlimit:4;stroke-dasharray:none;stroke-opacity:1"
     d="m 48.581855,44.438269 0.0957,3.79102 0.164062,6.55273 c -0.246924,0.006 -0.493977,0.002 -0.740234,-0.0137 -0.246223,-0.0158 -0.49132,-0.0426 -0.734375,-0.0801 -0.243536,-0.0375 -0.484724,-0.0857 -0.722656,-0.14453 -0.23755,-0.0586 -0.471567,-0.1277 -0.701172,-0.20703 -0.229577,-0.0792 -0.454467,-0.16848 -0.673828,-0.26758 -0.218959,-0.0992 -0.432115,-0.20808 -0.638672,-0.32617 -0.207028,-0.11863 -0.407149,-0.2464 -0.59961,-0.38281 -0.192307,-0.13561 -0.376781,-0.27967 -0.552734,-0.43164 -0.176331,-0.1526 -0.343858,-0.31295 -0.501953,-0.48047 -0.157553,-0.16714 -0.305524,-0.34118 -0.443359,-0.52149 -0.06547,-0.0852 -0.128635,-0.17185 -0.189454,-0.25976 -0.12796,-0.18605 -0.245294,-0.37769 -0.351562,-0.57422 -0.10706,-0.19674 -0.202883,-0.39817 -0.287109,-0.60352 -0.08335,-0.20497 -0.155056,-0.41357 -0.214844,-0.625 -0.06028,-0.21186 -0.108518,-0.42632 -0.144531,-0.64258 -0.03573,-0.2162 -0.0592,-0.43392 -0.07031,-0.65234 -0.01166,-0.21792 -0.01101,-0.43629 0.002,-0.6543 0.01374,-0.21839 0.03981,-0.43611 0.07813,-0.65234 0.03779,-0.21225 0.08733,-0.42279 0.148438,-0.63086 -14.898505,6.23137 -24.626355,20.96658 -24.640625,37.32422 2.8e-4,22.315471 17.820337,40.405721 39.802734,40.406251 21.982396,-5.3e-4 39.80245,-18.09079 39.80273,-40.406251 -0.0128,-16.40975 -9.800476,-31.18197 -24.767574,-37.38086 0.03998,0.1512 0.07385,0.30364 0.101563,0.45703 0.03631,0.21553 0.06043,0.4326 0.07227,0.65039 0.01108,0.21861 0.0098,0.43763 -0.0039,0.65625 -0.01309,0.21837 -0.03851,0.43609 -0.07617,0.65235 -0.038,0.21621 -0.0882,0.43067 -0.15039,0.64257 -0.06244,0.21142 -0.136751,0.42001 -0.222656,0.625 -0.08555,0.20594 -0.182673,0.40801 -0.291016,0.60547 -0.05094,0.0929 -0.104341,0.18471 -0.160156,0.27539 -0.118946,0.19241 -0.248666,0.3795 -0.388672,0.56055 -0.13983,0.18094 -0.289757,0.35564 -0.449219,0.52344 -0.159523,0.16746 -0.328353,0.32781 -0.505859,0.48047 -0.17728,0.15325 -0.363059,0.29862 -0.556641,0.43554 -0.193848,0.13705 -0.395273,0.26547 -0.603516,0.38477 -0.207949,0.11874 -0.422409,0.22825 -0.642578,0.32812 -0.220119,0.0997 -0.44566,0.18967 -0.675781,0.26954 -0.230324,0.0806 -0.464993,0.15102 -0.703125,0.21093 -0.23805,0.0594 -0.479237,0.10833 -0.722656,0.14649 -0.243817,0.0382 -0.489568,0.0656 -0.736328,0.082 -0.116398,0.008 -0.232968,0.0129 -0.34961,0.0156 l -0.164062,-6.55274"
     id="path4574"
     inkscape:connector-curvature="0"
     sodipodi:nodetypes="cccccccccccccccccccccccccccccccccccccccccccccc"
     inkscape:export-xdpi="300"
     inkscape:export-ydpi="300" />
  <path
     style="opacity:1;fill:none;fill-opacity:1;stroke:#000000;stroke-width:3.59715223;stroke-linecap:round;stroke-linejoin:miter;stroke-miterlimit:4;stroke-dasharray:none;stroke-opacity:1"
     d="m 64.37873,44.354289 0.09375,3.66992 0.164062,6.55273 a 6.5553708,7.410419 88.560051 0 0 0.34961,-0.0156 6.5553708,7.410419 88.560051 0 0 0.736328,-0.082 6.5553708,7.410419 88.560051 0 0 0.722656,-0.14649 6.5553708,7.410419 88.560051 0 0 0.703125,-0.21093 6.5553708,7.410419 88.560051 0 0 0.675781,-0.26954 6.5553708,7.410419 88.560051 0 0 0.642578,-0.32812 6.5553708,7.410419 88.560051 0 0 0.603516,-0.38477 6.5553708,7.410419 88.560051 0 0 0.556641,-0.43554 6.5553708,7.410419 88.560051 0 0 0.505859,-0.48047 6.5553708,7.410419 88.560051 0 0 0.449219,-0.52344 6.5553708,7.410419 88.560051 0 0 0.388672,-0.56055 6.5553708,7.410419 88.560051 0 0 0.160156,-0.27539 6.5553708,7.410419 88.560051 0 0 0.291016,-0.60547 6.5553708,7.410419 88.560051 0 0 0.222656,-0.625 6.5553708,7.410419 88.560051 0 0 0.15039,-0.64257 6.5553708,7.410419 88.560051 0 0 0.07617,-0.65235 6.5553708,7.410419 88.560051 0 0 0.0039,-0.65625 6.5553708,7.410419 88.560051 0 0 -0.07227,-0.65039 6.5553708,7.410419 88.560051 0 0 -0.101563,-0.45703 39.80368,40.406765 0 0 0 -7.322265,-2.2207 z"
     id="path4571"
     inkscape:connector-curvature="0"
     inkscape:export-xdpi="300"
     inkscape:export-ydpi="300" />
  <path
     style="opacity:1;fill:none;fill-opacity:1;stroke:#000000;stroke-width:3.59715223;stroke-linecap:round;stroke-linejoin:miter;stroke-miterlimit:4;stroke-dasharray:none;stroke-opacity:1"
     d="m 41.50373,46.631629 a 6.5553708,7.410419 88.560051 0 0 -0.148438,0.63086 6.5553708,7.410419 88.560051 0 0 -0.07813,0.65234 6.5553708,7.410419 88.560051 0 0 -0.002,0.6543 6.5553708,7.410419 88.560051 0 0 0.07031,0.65234 6.5553708,7.410419 88.560051 0 0 0.144531,0.64258 6.5553708,7.410419 88.560051 0 0 0.214844,0.625 6.5553708,7.410419 88.560051 0 0 0.287109,0.60352 6.5553708,7.410419 88.560051 0 0 0.351562,0.57422 6.5553708,7.410419 88.560051 0 0 0.189454,0.25976 6.5553708,7.410419 88.560051 0 0 0.443359,0.52149 6.5553708,7.410419 88.560051 0 0 0.501953,0.48047 6.5553708,7.410419 88.560051 0 0 0.552734,0.43164 6.5553708,7.410419 88.560051 0 0 0.59961,0.38281 6.5553708,7.410419 88.560051 0 0 0.638672,0.32617 6.5553708,7.410419 88.560051 0 0 0.673828,0.26758 6.5553708,7.410419 88.560051 0 0 0.701172,0.20703 6.5553708,7.410419 88.560051 0 0 0.722656,0.14453 6.5553708,7.410419 88.560051 0 0 0.734375,0.0801 6.5553708,7.410419 88.560051 0 0 0.740234,0.0137 l -0.164062,-6.55273 -0.0957,-3.79102 a 39.80368,40.406765 0 0 0 -7.078125,2.19336 z"
     id="path4540"
     inkscape:connector-curvature="0"
     inkscape:export-xdpi="300"
     inkscape:export-ydpi="300" />
  <rect
     style="opacity:1;fill:none;fill-opacity:1;stroke:#000000;stroke-width:2.20000005;stroke-linecap:round;stroke-linejoin:miter;stroke-miterlimit:4;stroke-dasharray:none;stroke-opacity:1"
     id="rect4578"
     width="3.4201934"
     height="0.14250806"
     x="58.090904"
     y="46.190926"
     inkscape:export-xdpi="300"
     inkscape:export-ydpi="300" />
  <rect
     style="opacity:1;fill:none;fill-opacity:1;stroke:#000000;stroke-width:2.20000005;stroke-linecap:round;stroke-linejoin:miter;stroke-miterlimit:4;stroke-dasharray:none;stroke-opacity:1"
     id="rect4578-2"
     width="3.4201934"
     height="0.14250806"
     x="58.233414"
     y="51.677475"
     inkscape:export-xdpi="300"
     inkscape:export-ydpi="300" />
  <path
     style="fill:#000000;fill-rule:evenodd;stroke:none;stroke-width:0.40000001;stroke-linecap:butt;stroke-linejoin:miter;stroke-miterlimit:4;stroke-dasharray:none;stroke-opacity:1"
     d="m 24.601517,62.721859 c 14.613473,18.91054 22.251703,32.25371 21.376209,50.162841 -0.163804,3.35079 5.253379,3.18595 10.54445,3.24249 5.649522,0.0604 11.175229,0.13355 10.261726,-2.81497 -3.165711,-10.21801 10.759058,-40.148041 20.663669,-53.440521 1.471803,-1.97523 -3.535211,-7.86932 -4.702766,-5.70032 -3.717908,6.90686 -12.815712,29.64644 -26.363991,29.92669 -13.277283,0.27465 -26.791517,-28.2166 -26.791517,-28.2166 0,0 -6.71329,4.60749 -4.98778,6.84039 z"
     id="path4603"
     inkscape:connector-curvature="0"
     sodipodi:nodetypes="ssssssscs"
     inkscape:export-xdpi="300"
     inkscape:export-ydpi="300" />
  <circle
     style="opacity:1;fill:#000000;fill-opacity:1;stroke:none;stroke-width:0.96888888;stroke-linecap:round;stroke-linejoin:miter;stroke-miterlimit:4;stroke-dasharray:none;stroke-opacity:1"
     id="path4605"
     cx="56.737083"
     cy="71.058563"
     r="7.7666893"
     inkscape:export-xdpi="300"
     inkscape:export-ydpi="300" />
  <rect
     style="opacity:1;fill:#000000;fill-opacity:1;stroke:#000000;stroke-width:0.39792094;stroke-linecap:round;stroke-linejoin:miter;stroke-miterlimit:4;stroke-dasharray:none;stroke-opacity:1"
     id="rect4645"
     width="307.14423"
     height="141.07785"
     x="0.80510783"
     y="-144.03558"
     inkscape:export-xdpi="300"
     inkscape:export-ydpi="300" />
  <path
     style="opacity:1;fill:none;fill-opacity:1;stroke:#ffffff;stroke-width:3.59715223;stroke-linecap:round;stroke-linejoin:miter;stroke-miterlimit:4;stroke-dasharray:none;stroke-opacity:1"
     d="m 53.784634,-105.90267 0.0957,3.79102 0.16406,6.552731 c -0.24692,0.006 -0.49398,0.002 -0.74023,-0.0137 -0.24623,-0.0158 -0.49132,-0.0426 -0.73438,-0.0801 -0.24353,-0.0375 -0.48472,-0.0857 -0.72265,-0.14453 -0.23755,-0.0586 -0.47157,-0.1277 -0.70118,-0.20703 -0.22957,-0.0792 -0.45446,-0.16848 -0.67382,-0.26758 -0.21896,-0.0992 -0.43212,-0.20808 -0.63868,-0.32617 -0.20702,-0.11863 -0.40714,-0.2464 -0.59961,-0.38281 -0.1923,-0.13561 -0.37678,-0.27967 -0.55273,-0.43164 -0.17633,-0.1526 -0.34386,-0.31295 -0.50195,-0.48047 -0.15756,-0.16714 -0.30553,-0.34118 -0.44336,-0.52149 -0.0655,-0.0852 -0.12864,-0.17185 -0.18946,-0.25976 -0.12796,-0.18605 -0.24529,-0.37769 -0.35156,-0.57422 -0.10706,-0.19674 -0.20288,-0.39817 -0.28711,-0.60352 -0.0833,-0.204971 -0.15505,-0.413571 -0.21484,-0.625001 -0.0603,-0.21186 -0.10852,-0.42632 -0.14453,-0.64258 -0.0357,-0.2162 -0.0592,-0.43392 -0.0703,-0.65234 -0.0117,-0.21792 -0.011,-0.43629 0.002,-0.6543 0.0137,-0.21839 0.0398,-0.43611 0.0781,-0.65234 0.0378,-0.21225 0.0873,-0.42279 0.14844,-0.63086 -14.898505,6.231371 -24.626355,20.966581 -24.640625,37.324221 2.8e-4,22.31547 17.820335,40.40572 39.802735,40.40625 21.98239,-5.3e-4 39.802446,-18.09079 39.802726,-40.40625 -0.0128,-16.40975 -9.800476,-31.18197 -24.767576,-37.380861 0.04,0.1512 0.0738,0.30364 0.10156,0.45703 0.0363,0.21553 0.0604,0.4326 0.0723,0.65039 0.0111,0.21861 0.01,0.43763 -0.004,0.65625 -0.0131,0.21837 -0.0385,0.43609 -0.0762,0.65235 -0.038,0.21621 -0.0882,0.43067 -0.15039,0.64257 -0.0624,0.21142 -0.13675,0.42001 -0.22265,0.625 -0.0856,0.205941 -0.18267,0.408011 -0.29102,0.605471 -0.0509,0.0929 -0.10434,0.18471 -0.16015,0.27539 -0.11895,0.19241 -0.24867,0.3795 -0.38868,0.56055 -0.13983,0.18094 -0.28975,0.35564 -0.44921,0.52344 -0.15953,0.16746 -0.32836,0.32781 -0.50586,0.48047 -0.17728,0.15325 -0.36306,0.29862 -0.55664,0.43554 -0.19385,0.13705 -0.39528,0.26547 -0.60352,0.38477 -0.20795,0.11874 -0.42241,0.22825 -0.64258,0.32812 -0.22012,0.0997 -0.44566,0.18967 -0.67578,0.26954 -0.23032,0.0806 -0.46499,0.15102 -0.70312,0.21093 -0.23805,0.0594 -0.47924,0.10833 -0.72266,0.14649 -0.24382,0.0382 -0.48957,0.0656 -0.73633,0.082 -0.1164,0.008 -0.23297,0.0129 -0.34961,0.0156 l -0.16406,-6.552741"
     id="path4574-1"
     inkscape:connector-curvature="0"
     sodipodi:nodetypes="cccccccccccccccccccccccccccccccccccccccccccccc"
     inkscape:export-xdpi="300"
     inkscape:export-ydpi="300" />
  <path
     style="opacity:1;fill:none;fill-opacity:1;stroke:#ffffff;stroke-width:3.59715223;stroke-linecap:round;stroke-linejoin:miter;stroke-miterlimit:4;stroke-dasharray:none;stroke-opacity:1"
     d="m 69.581504,-105.98665 0.0937,3.66992 0.16407,6.552731 a 6.5553708,7.410419 88.560051 0 0 0.34961,-0.0156 6.5553708,7.410419 88.560051 0 0 0.73632,-0.082 6.5553708,7.410419 88.560051 0 0 0.72266,-0.14649 6.5553708,7.410419 88.560051 0 0 0.70313,-0.21093 6.5553708,7.410419 88.560051 0 0 0.67578,-0.26954 6.5553708,7.410419 88.560051 0 0 0.64257,-0.32812 6.5553708,7.410419 88.560051 0 0 0.60352,-0.38477 6.5553708,7.410419 88.560051 0 0 0.55664,-0.43554 6.5553708,7.410419 88.560051 0 0 0.50586,-0.48047 6.5553708,7.410419 88.560051 0 0 0.44922,-0.52344 6.5553708,7.410419 88.560051 0 0 0.38867,-0.56055 6.5553708,7.410419 88.560051 0 0 0.16016,-0.27539 6.5553708,7.410419 88.560051 0 0 0.29101,-0.605471 6.5553708,7.410419 88.560051 0 0 0.22266,-0.625 6.5553708,7.410419 88.560051 0 0 0.15039,-0.64257 6.5553708,7.410419 88.560051 0 0 0.0762,-0.65235 6.5553708,7.410419 88.560051 0 0 0.004,-0.65625 6.5553708,7.410419 88.560051 0 0 -0.0723,-0.65039 6.5553708,7.410419 88.560051 0 0 -0.10156,-0.45703 39.80368,40.406765 0 0 0 -7.32227,-2.2207 z"
     id="path4571-3"
     inkscape:connector-curvature="0"
     inkscape:export-xdpi="300"
     inkscape:export-ydpi="300" />
  <path
     style="opacity:1;fill:none;fill-opacity:1;stroke:#ffffff;stroke-width:3.59715223;stroke-linecap:round;stroke-linejoin:miter;stroke-miterlimit:4;stroke-dasharray:none;stroke-opacity:1"
     d="m 46.706504,-103.70931 a 6.5553708,7.410419 88.560051 0 0 -0.14843,0.63086 6.5553708,7.410419 88.560051 0 0 -0.0781,0.65234 6.5553708,7.410419 88.560051 0 0 -0.002,0.6543 6.5553708,7.410419 88.560051 0 0 0.0703,0.65234 6.5553708,7.410419 88.560051 0 0 0.14453,0.64258 6.5553708,7.410419 88.560051 0 0 0.21484,0.625001 6.5553708,7.410419 88.560051 0 0 0.28711,0.60352 6.5553708,7.410419 88.560051 0 0 0.35156,0.57422 6.5553708,7.410419 88.560051 0 0 0.18946,0.25976 6.5553708,7.410419 88.560051 0 0 0.44336,0.52149 6.5553708,7.410419 88.560051 0 0 0.50195,0.48047 6.5553708,7.410419 88.560051 0 0 0.55273,0.43164 6.5553708,7.410419 88.560051 0 0 0.59961,0.38281 6.5553708,7.410419 88.560051 0 0 0.63867,0.32617 6.5553708,7.410419 88.560051 0 0 0.67383,0.26758 6.5553708,7.410419 88.560051 0 0 0.70117,0.20703 6.5553708,7.410419 88.560051 0 0 0.72266,0.14453 6.5553708,7.410419 88.560051 0 0 0.73438,0.0801 6.5553708,7.410419 88.560051 0 0 0.74023,0.0137 l -0.16406,-6.552731 -0.0957,-3.79102 a 39.80368,40.406765 0 0 0 -7.07813,2.19336 z"
     id="path4540-8"
     inkscape:connector-curvature="0"
     inkscape:export-xdpi="300"
     inkscape:export-ydpi="300" />
  <rect
     style="opacity:1;fill:none;fill-opacity:1;stroke:#ffffff;stroke-width:2.20000005;stroke-linecap:round;stroke-linejoin:miter;stroke-miterlimit:4;stroke-dasharray:none;stroke-opacity:1"
     id="rect4578-0"
     width="3.4201934"
     height="0.14250806"
     x="63.29369"
     y="-104.15002"
     inkscape:export-xdpi="300"
     inkscape:export-ydpi="300" />
  <rect
     style="opacity:1;fill:none;fill-opacity:1;stroke:#ffffff;stroke-width:2.20000005;stroke-linecap:round;stroke-linejoin:miter;stroke-miterlimit:4;stroke-dasharray:none;stroke-opacity:1"
     id="rect4578-2-9"
     width="3.4201934"
     height="0.14250806"
     x="63.436207"
     y="-98.663475"
     inkscape:export-xdpi="300"
     inkscape:export-ydpi="300" />
  <path
     style="fill:#ffffff;fill-rule:evenodd;stroke:none;stroke-width:0.40000001;stroke-linecap:butt;stroke-linejoin:miter;stroke-miterlimit:4;stroke-dasharray:none;stroke-opacity:1"
     d="m 29.804299,-87.619079 c 14.613465,18.91054 22.251695,32.25371 21.376205,50.16284 -0.1638,3.35079 5.25338,3.18595 10.54445,3.24249 5.64952,0.0604 11.17523,0.13355 10.26173,-2.81497 -3.16571,-10.21801 10.75905,-40.14804 20.66367,-53.44052 1.4718,-1.97523 -3.53522,-7.86932 -4.70277,-5.70032 -3.71791,6.90686 -12.81571,29.64644 -26.36399,29.92669 -13.27728,0.27465 -26.791515,-28.2166 -26.791515,-28.2166 0,0 -6.71329,4.60749 -4.98778,6.84039 z"
     id="path4603-7"
     inkscape:connector-curvature="0"
     sodipodi:nodetypes="ssssssscs"
     inkscape:export-xdpi="300"
     inkscape:export-ydpi="300" />
  <circle
     style="opacity:1;fill:#ffffff;fill-opacity:1;stroke:none;stroke-width:0.96888888;stroke-linecap:round;stroke-linejoin:miter;stroke-miterlimit:4;stroke-dasharray:none;stroke-opacity:1"
     id="path4605-9"
     cx="61.939869"
     cy="-79.282387"
     r="7.7666893"
     inkscape:export-xdpi="300"
     inkscape:export-ydpi="300" />
  <text
     xml:space="preserve"
     style="font-style:normal;font-variant:normal;font-weight:normal;font-stretch:normal;font-size:30.81726646px;line-height:125%;font-family:Serpentine;-inkscape-font-specification:Serpentine;letter-spacing:0px;word-spacing:0px;fill:#ffffff;fill-opacity:1;stroke:none;stroke-width:1.44455934px;stroke-linecap:butt;stroke-linejoin:miter;stroke-opacity:1"
     x="122.54563"
     y="-46.616241"
     id="text4643-2"
     inkscape:export-xdpi="300"
     inkscape:export-ydpi="300"
     transform="scale(0.87547823,1.1422329)"><tspan
       sodipodi:role="line"
       id="tspan4641-4"
       x="122.54563"
       y="-46.616241"
       style="font-style:normal;font-variant:normal;font-weight:normal;font-stretch:normal;font-family:Verdana;-inkscape-font-specification:Verdana;fill:#ffffff;stroke-width:1.44455934px">Smart</tspan></text>
  <text
     xml:space="preserve"
     style="font-style:normal;font-variant:normal;font-weight:normal;font-stretch:normal;font-size:49.41589737px;line-height:125%;font-family:Serpentine;-inkscape-font-specification:Serpentine;letter-spacing:0px;word-spacing:0px;fill:#000000;fill-opacity:1;stroke:none;stroke-width:2.31637025px;stroke-linecap:butt;stroke-linejoin:miter;stroke-opacity:1"
     x="192.20395"
     y="-52.005005"
     id="text848"
     transform="scale(0.98234037,1.0179771)"><tspan
       sodipodi:role="line"
       id="tspan846"
       x="192.20395"
       y="-52.005005"
       style="font-style:normal;font-variant:normal;font-weight:normal;font-stretch:normal;font-family:Verdana;-inkscape-font-specification:Verdana;fill:#ffffff;stroke-width:2.31637025px">RMS</tspan></text>
  <text
     transform="scale(0.87547821,1.1422329)"
     inkscape:export-ydpi="300"
     inkscape:export-xdpi="300"
     id="text852"
     y="87.478996"
     x="116.56038"
     style="font-style:normal;font-variant:normal;font-weight:normal;font-stretch:normal;font-size:30.81726646px;line-height:125%;font-family:Serpentine;-inkscape-font-specification:Serpentine;letter-spacing:0px;word-spacing:0px;fill:#000000;fill-opacity:1;stroke:none;stroke-width:1.44455934px;stroke-linecap:butt;stroke-linejoin:miter;stroke-opacity:1;"
     xml:space="preserve"><tspan
       style="font-style:normal;font-variant:normal;font-weight:normal;font-stretch:normal;font-family:Verdana;-inkscape-font-specification:Verdana;fill:#000000;stroke-width:1.44455934px;"
       y="87.478996"
       x="116.56038"
       id="tspan850"
       sodipodi:role="line">Smart</tspan></text>
  <text
     transform="scale(0.98234037,1.0179771)"
     id="text856"
     y="98.458099"
     x="186.8698"
     style="font-style:normal;font-variant:normal;font-weight:normal;font-stretch:normal;font-size:49.41589737px;line-height:125%;font-family:Serpentine;-inkscape-font-specification:Serpentine;letter-spacing:0px;word-spacing:0px;fill:#000000;fill-opacity:1;stroke:none;stroke-width:2.31637025px;stroke-linecap:butt;stroke-linejoin:miter;stroke-opacity:1;"
     xml:space="preserve"
     inkscape:export-xdpi="300"
     inkscape:export-ydpi="300"><tspan
       style="font-style:normal;font-variant:normal;font-weight:normal;font-stretch:normal;font-family:Verdana;-inkscape-font-specification:Verdana;fill:#000000;stroke-width:2.31637025px;"
       y="98.458099"
       x="186.8698"
       id="tspan854"
       sodipodi:role="line">RMS</tspan></text>
  <path
     sodipodi:type="star"
     style="opacity:1;fill:#d7d8d8;fill-opacity:1;fill-rule:nonzero;stroke:#000000;stroke-width:1.88999999;stroke-linecap:round;stroke-linejoin:round;stroke-miterlimit:4;stroke-dasharray:none;stroke-dashoffset:0;stroke-opacity:1"
     id="path882"
     sodipodi:sides="3"
     sodipodi:cx="-4.0307355"
     sodipodi:cy="246.14075"
     sodipodi:r1="23.287752"
     sodipodi:r2="11.643877"
     sodipodi:arg1="0.52359878"
     sodipodi:arg2="1.5707963"
     inkscape:flatsided="true"
     inkscape:rounded="0"
     inkscape:randomized="0"
     d="m 16.137049,257.78462 -40.33557,0 20.1677856,-34.93163 z"
     inkscape:transform-center-y="-2.1339801"
     transform="matrix(0.46540863,0,0,0.36654159,302.14633,234.75449)" />
  <g
     id="g898"
     inkscape:export-xdpi="300"
     inkscape:export-ydpi="300">
    <g
       transform="matrix(2.8332005,0,0,2.8308617,-186.20975,-437.12411)"
       id="g888">
      <rect
         style="opacity:1;fill:#d7d8d8;fill-opacity:1;fill-rule:nonzero;stroke:#000000;stroke-width:0.43200001;stroke-linecap:round;stroke-linejoin:round;stroke-miterlimit:4;stroke-dasharray:none;stroke-dashoffset:0;stroke-opacity:1"
         id="rect862"
         width="61.747459"
         height="34.173901"
         x="70.702583"
         y="215.18059"
         ry="2.308455" />
      <path
         style="opacity:1;fill:#d7d8d8;fill-opacity:1;fill-rule:nonzero;stroke:#000000;stroke-width:0.51499999;stroke-linecap:round;stroke-linejoin:round;stroke-miterlimit:4;stroke-dasharray:none;stroke-dashoffset:0;stroke-opacity:1"
         d="m 107.31773,261.68896 c -0.89463,0.79383 -10.607197,0.79383 -11.501817,0 -0.894644,-0.79382 2.015576,-9.03955 2.910196,-9.83337 0.894634,-0.79383 5.150561,-0.79383 6.045191,0 0.89463,0.79382 3.44106,9.03955 2.54643,9.83337 z"
         id="path954"
         inkscape:connector-curvature="0"
         sodipodi:nodetypes="sssss" />
      <g
         id="g879"
         transform="translate(-0.60859609,-2.8576175)"
         style="fill:#ffffff">
        <text
           xml:space="preserve"
           style="font-style:normal;font-variant:normal;font-weight:normal;font-stretch:normal;font-size:7.66893482px;line-height:125%;font-family:Serpentine;-inkscape-font-specification:Serpentine;letter-spacing:0px;word-spacing:0px;fill:#ffffff;fill-opacity:1;stroke:none;stroke-width:0.35948128px;stroke-linecap:butt;stroke-linejoin:miter;stroke-opacity:1"
           x="80.101471"
           y="216.32758"
           id="text852-5"
           inkscape:export-xdpi="300"
           inkscape:export-ydpi="300"
           transform="scale(0.9445294,1.0587283)"><tspan
             sodipodi:role="line"
             id="tspan850-6"
             x="80.101471"
             y="216.32758"
             style="font-style:normal;font-variant:normal;font-weight:normal;font-stretch:normal;font-family:Verdana;-inkscape-font-specification:Verdana;fill:#ffffff;stroke-width:0.35948128px">Simple</tspan></text>
        <text
           inkscape:export-ydpi="300"
           inkscape:export-xdpi="300"
           xml:space="preserve"
           style="font-style:normal;font-variant:normal;font-weight:normal;font-stretch:normal;font-size:20.98473549px;line-height:125%;font-family:Serpentine;-inkscape-font-specification:Serpentine;letter-spacing:0px;word-spacing:0px;fill:#ffffff;fill-opacity:1;stroke:none;stroke-width:0.98365951px;stroke-linecap:butt;stroke-linejoin:miter;stroke-opacity:1"
           x="75.265251"
           y="242.72105"
           id="text856-9"
           transform="scale(0.98234037,1.0179771)"><tspan
             sodipodi:role="line"
             id="tspan854-3"
             x="75.265251"
             y="242.72105"
             style="font-style:normal;font-variant:normal;font-weight:normal;font-stretch:normal;font-family:Verdana;-inkscape-font-specification:Verdana;fill:#ffffff;stroke-width:0.98365951px">Kiosk</tspan></text>
      </g>
    </g>
  </g>
</svg>
